<mxfile host="Electron" modified="2024-02-12T10:57:56.450Z" agent="Mozilla/5.0 (Macintosh; Intel Mac OS X 10_15_7) AppleWebKit/537.36 (KHTML, like Gecko) draw.io/21.3.7 Chrome/112.0.5615.204 Electron/24.5.0 Safari/537.36" etag="e2lHDUpEeJquMGv1GI6m" version="21.3.7" type="device" pages="3">
  <diagram name="Page-1" id="ppfff9gXHkGshl8ri8Mc">
    <mxGraphModel dx="1420" dy="790" grid="1" gridSize="10" guides="1" tooltips="1" connect="1" arrows="1" fold="1" page="1" pageScale="1" pageWidth="1169" pageHeight="827" math="0" shadow="0">
      <root>
        <mxCell id="0" />
        <mxCell id="1" parent="0" />
        <mxCell id="mU5gjbQFgMkkjBOhH-mW-1" value="Resource" style="rounded=1;whiteSpace=wrap;html=1;fillColor=#dae8fc;strokeColor=#6c8ebf;" vertex="1" parent="1">
          <mxGeometry x="520" y="354" width="120" height="60" as="geometry" />
        </mxCell>
        <mxCell id="mU5gjbQFgMkkjBOhH-mW-2" value="Group" style="rounded=1;whiteSpace=wrap;html=1;fillColor=#e1d5e7;strokeColor=#9673a6;" vertex="1" parent="1">
          <mxGeometry x="520" y="480" width="120" height="60" as="geometry" />
        </mxCell>
        <mxCell id="mU5gjbQFgMkkjBOhH-mW-3" value="User" style="rounded=1;whiteSpace=wrap;html=1;fillColor=#e1d5e7;strokeColor=#9673a6;" vertex="1" parent="1">
          <mxGeometry x="360" y="480" width="120" height="60" as="geometry" />
        </mxCell>
        <mxCell id="mU5gjbQFgMkkjBOhH-mW-4" value="Extension..." style="rounded=1;whiteSpace=wrap;html=1;dashed=1;dashPattern=12 12;fillColor=#e1d5e7;strokeColor=#9673a6;" vertex="1" parent="1">
          <mxGeometry x="680" y="480" width="120" height="60" as="geometry" />
        </mxCell>
        <mxCell id="mU5gjbQFgMkkjBOhH-mW-5" value="EnterpriseUser" style="rounded=1;whiteSpace=wrap;html=1;fillColor=#ffe6cc;strokeColor=#d79b00;" vertex="1" parent="1">
          <mxGeometry x="360" y="600" width="120" height="60" as="geometry" />
        </mxCell>
        <mxCell id="mU5gjbQFgMkkjBOhH-mW-14" value="&lt;div style=&quot;&quot;&gt;&lt;/div&gt;Common: &lt;b&gt;id, externalId, meta&lt;br&gt;&lt;/b&gt;" style="rounded=0;whiteSpace=wrap;html=1;align=left;verticalAlign=middle;" vertex="1" parent="1">
          <mxGeometry x="680" y="354" width="180" height="60" as="geometry" />
        </mxCell>
        <mxCell id="mU5gjbQFgMkkjBOhH-mW-15" value="" style="endArrow=none;dashed=1;html=1;rounded=0;entryX=0;entryY=0.5;entryDx=0;entryDy=0;exitX=1;exitY=0.5;exitDx=0;exitDy=0;" edge="1" parent="1" source="mU5gjbQFgMkkjBOhH-mW-1" target="mU5gjbQFgMkkjBOhH-mW-14">
          <mxGeometry width="50" height="50" relative="1" as="geometry">
            <mxPoint x="570" y="420" as="sourcePoint" />
            <mxPoint x="620" y="370" as="targetPoint" />
          </mxGeometry>
        </mxCell>
        <mxCell id="mU5gjbQFgMkkjBOhH-mW-16" value="" style="endArrow=classic;html=1;rounded=0;exitX=0.5;exitY=0;exitDx=0;exitDy=0;entryX=0.25;entryY=1;entryDx=0;entryDy=0;" edge="1" parent="1" source="mU5gjbQFgMkkjBOhH-mW-3" target="mU5gjbQFgMkkjBOhH-mW-1">
          <mxGeometry width="50" height="50" relative="1" as="geometry">
            <mxPoint x="570" y="420" as="sourcePoint" />
            <mxPoint x="620" y="370" as="targetPoint" />
          </mxGeometry>
        </mxCell>
        <mxCell id="mU5gjbQFgMkkjBOhH-mW-17" value="" style="endArrow=classic;html=1;rounded=0;exitX=0.5;exitY=0;exitDx=0;exitDy=0;entryX=0.5;entryY=1;entryDx=0;entryDy=0;" edge="1" parent="1" source="mU5gjbQFgMkkjBOhH-mW-2" target="mU5gjbQFgMkkjBOhH-mW-1">
          <mxGeometry width="50" height="50" relative="1" as="geometry">
            <mxPoint x="570" y="420" as="sourcePoint" />
            <mxPoint x="620" y="370" as="targetPoint" />
          </mxGeometry>
        </mxCell>
        <mxCell id="mU5gjbQFgMkkjBOhH-mW-18" value="" style="endArrow=classic;html=1;rounded=0;exitX=0.5;exitY=0;exitDx=0;exitDy=0;entryX=0.75;entryY=1;entryDx=0;entryDy=0;" edge="1" parent="1" source="mU5gjbQFgMkkjBOhH-mW-4" target="mU5gjbQFgMkkjBOhH-mW-1">
          <mxGeometry width="50" height="50" relative="1" as="geometry">
            <mxPoint x="570" y="420" as="sourcePoint" />
            <mxPoint x="620" y="370" as="targetPoint" />
          </mxGeometry>
        </mxCell>
        <mxCell id="mU5gjbQFgMkkjBOhH-mW-19" value="" style="endArrow=classic;html=1;rounded=0;exitX=0.5;exitY=0;exitDx=0;exitDy=0;entryX=0.5;entryY=1;entryDx=0;entryDy=0;" edge="1" parent="1" source="mU5gjbQFgMkkjBOhH-mW-5" target="mU5gjbQFgMkkjBOhH-mW-3">
          <mxGeometry width="50" height="50" relative="1" as="geometry">
            <mxPoint x="570" y="430" as="sourcePoint" />
            <mxPoint x="620" y="380" as="targetPoint" />
          </mxGeometry>
        </mxCell>
      </root>
    </mxGraphModel>
  </diagram>
  <diagram id="v597XJa2TG74dxrTdFPa" name="Page-2">
    <mxGraphModel dx="1420" dy="790" grid="1" gridSize="10" guides="1" tooltips="1" connect="1" arrows="1" fold="1" page="1" pageScale="1" pageWidth="1169" pageHeight="827" math="0" shadow="0">
      <root>
        <mxCell id="0" />
        <mxCell id="1" parent="0" />
        <mxCell id="GoWAyyU1EWHssX0x1m_c-1" value="Attributes" style="rounded=1;whiteSpace=wrap;html=1;fillColor=#dae8fc;strokeColor=#6c8ebf;" vertex="1" parent="1">
          <mxGeometry x="428.75" y="110" width="120" height="60" as="geometry" />
        </mxCell>
        <mxCell id="GoWAyyU1EWHssX0x1m_c-4" value="Simple" style="rounded=1;whiteSpace=wrap;html=1;fillColor=#e1d5e7;strokeColor=#9673a6;" vertex="1" parent="1">
          <mxGeometry x="70" y="310" width="120" height="60" as="geometry" />
        </mxCell>
        <mxCell id="GoWAyyU1EWHssX0x1m_c-5" value="Complex&amp;nbsp;" style="rounded=1;whiteSpace=wrap;html=1;fillColor=#e1d5e7;strokeColor=#9673a6;" vertex="1" parent="1">
          <mxGeometry x="250" y="310" width="120" height="60" as="geometry" />
        </mxCell>
        <mxCell id="GoWAyyU1EWHssX0x1m_c-6" value="&quot;userName&quot; : &quot;azitterbacke&quot;" style="rounded=0;whiteSpace=wrap;html=1;verticalAlign=top;align=left;fontFamily=Courier New;fontSize=10;" vertex="1" parent="1">
          <mxGeometry x="40" y="390" width="180" height="40" as="geometry" />
        </mxCell>
        <mxCell id="GoWAyyU1EWHssX0x1m_c-7" value="&quot;mame&quot; : {&lt;br style=&quot;font-size: 10px;&quot;&gt;&amp;nbsp; &quot;givenName&quot; : &quot;Alfons&quot;&lt;br style=&quot;font-size: 10px;&quot;&gt;, &quot;familyName&quot; : &quot;Zitterbacke&quot;&lt;br style=&quot;font-size: 10px;&quot;&gt;}" style="rounded=0;whiteSpace=wrap;html=1;verticalAlign=top;align=left;fontFamily=Courier New;fontSize=10;" vertex="1" parent="1">
          <mxGeometry x="225" y="390" width="170" height="60" as="geometry" />
        </mxCell>
        <mxCell id="GoWAyyU1EWHssX0x1m_c-8" value="&quot;emails&quot; : [&lt;br&gt;&amp;nbsp; { type&quot;&amp;nbsp; &amp;nbsp; &amp;nbsp;: &quot;work&quot;&lt;br style=&quot;font-size: 10px;&quot;&gt;&amp;nbsp; , &quot;primary&quot; :&amp;nbsp; true &lt;br&gt;&amp;nbsp; , &quot;value&quot;&amp;nbsp; &amp;nbsp;: &quot;alfons@somewhere.com&quot;&lt;br&gt;&amp;nbsp; }&lt;br&gt;, {type&quot;&amp;nbsp; &amp;nbsp; &amp;nbsp;: &quot;work&quot;&lt;br style=&quot;border-color: var(--border-color);&quot;&gt;&amp;nbsp; , &quot;value&quot;&amp;nbsp; &amp;nbsp;: &quot;alfons@nowhere.com&quot;&lt;br&gt;&amp;nbsp; }&lt;br style=&quot;font-size: 10px;&quot;&gt;]" style="rounded=0;whiteSpace=wrap;html=1;verticalAlign=top;align=left;fontFamily=Courier New;fontSize=10;" vertex="1" parent="1">
          <mxGeometry x="795" y="390" width="260" height="116" as="geometry" />
        </mxCell>
        <mxCell id="GoWAyyU1EWHssX0x1m_c-13" value="&quot;urn:ietf:params:scim:schemas:extension:enterprise:2.0:User&quot; : {&lt;br&gt;&amp;nbsp; &quot;orgenization&quot; : &quot;someValue&quot;&lt;br&gt;&amp;nbsp; &quot;division&quot;&amp;nbsp; &amp;nbsp; &amp;nbsp;: &quot;anotherValue&quot;&lt;br&gt;}" style="rounded=0;whiteSpace=wrap;html=1;verticalAlign=top;align=left;fontFamily=Courier New;fontSize=10;" vertex="1" parent="1">
          <mxGeometry x="400" y="390" width="390" height="60" as="geometry" />
        </mxCell>
        <mxCell id="GoWAyyU1EWHssX0x1m_c-19" value="" style="endArrow=classic;html=1;rounded=0;exitX=0.5;exitY=1;exitDx=0;exitDy=0;entryX=0.5;entryY=0;entryDx=0;entryDy=0;edgeStyle=elbowEdgeStyle;elbow=vertical;" edge="1" parent="1" source="GoWAyyU1EWHssX0x1m_c-1" target="GoWAyyU1EWHssX0x1m_c-2">
          <mxGeometry width="50" height="50" relative="1" as="geometry">
            <mxPoint x="410" y="420" as="sourcePoint" />
            <mxPoint x="460" y="370" as="targetPoint" />
          </mxGeometry>
        </mxCell>
        <mxCell id="GoWAyyU1EWHssX0x1m_c-20" value="" style="endArrow=classic;html=1;rounded=0;entryX=0.5;entryY=0;entryDx=0;entryDy=0;exitX=0.5;exitY=1;exitDx=0;exitDy=0;edgeStyle=elbowEdgeStyle;elbow=vertical;" edge="1" parent="1" source="GoWAyyU1EWHssX0x1m_c-1" target="GoWAyyU1EWHssX0x1m_c-3">
          <mxGeometry width="50" height="50" relative="1" as="geometry">
            <mxPoint x="500" y="280" as="sourcePoint" />
            <mxPoint x="550" y="230" as="targetPoint" />
          </mxGeometry>
        </mxCell>
        <mxCell id="GoWAyyU1EWHssX0x1m_c-21" value="" style="endArrow=classic;html=1;rounded=0;entryX=0.5;entryY=0;entryDx=0;entryDy=0;exitX=0.5;exitY=1;exitDx=0;exitDy=0;edgeStyle=elbowEdgeStyle;elbow=vertical;" edge="1" parent="1" source="GoWAyyU1EWHssX0x1m_c-2" target="GoWAyyU1EWHssX0x1m_c-4">
          <mxGeometry width="50" height="50" relative="1" as="geometry">
            <mxPoint x="412.5" y="300" as="sourcePoint" />
            <mxPoint x="462.5" y="250" as="targetPoint" />
          </mxGeometry>
        </mxCell>
        <mxCell id="GoWAyyU1EWHssX0x1m_c-22" value="" style="endArrow=classic;html=1;rounded=0;exitX=0.5;exitY=1;exitDx=0;exitDy=0;entryX=0.5;entryY=0;entryDx=0;entryDy=0;edgeStyle=elbowEdgeStyle;elbow=vertical;" edge="1" parent="1" source="GoWAyyU1EWHssX0x1m_c-2" target="GoWAyyU1EWHssX0x1m_c-5">
          <mxGeometry width="50" height="50" relative="1" as="geometry">
            <mxPoint x="330" y="290" as="sourcePoint" />
            <mxPoint x="380" y="240" as="targetPoint" />
          </mxGeometry>
        </mxCell>
        <mxCell id="GoWAyyU1EWHssX0x1m_c-23" value="" style="endArrow=classic;html=1;rounded=0;entryX=0.5;entryY=0;entryDx=0;entryDy=0;exitX=0.5;exitY=1;exitDx=0;exitDy=0;edgeStyle=elbowEdgeStyle;elbow=vertical;" edge="1" parent="1" source="GoWAyyU1EWHssX0x1m_c-3" target="GoWAyyU1EWHssX0x1m_c-10">
          <mxGeometry width="50" height="50" relative="1" as="geometry">
            <mxPoint x="570" y="300" as="sourcePoint" />
            <mxPoint x="620" y="250" as="targetPoint" />
          </mxGeometry>
        </mxCell>
        <mxCell id="GoWAyyU1EWHssX0x1m_c-24" value="" style="endArrow=classic;html=1;rounded=0;entryX=0.5;entryY=0;entryDx=0;entryDy=0;edgeStyle=elbowEdgeStyle;elbow=vertical;exitX=0.5;exitY=1;exitDx=0;exitDy=0;" edge="1" parent="1" source="GoWAyyU1EWHssX0x1m_c-3" target="GoWAyyU1EWHssX0x1m_c-9">
          <mxGeometry width="50" height="50" relative="1" as="geometry">
            <mxPoint x="730" y="270" as="sourcePoint" />
            <mxPoint x="820" y="290" as="targetPoint" />
          </mxGeometry>
        </mxCell>
        <mxCell id="GoWAyyU1EWHssX0x1m_c-9" value="Complex" style="rounded=1;whiteSpace=wrap;html=1;fillColor=#e1d5e7;strokeColor=#9673a6;" vertex="1" parent="1">
          <mxGeometry x="865" y="310" width="120" height="60" as="geometry" />
        </mxCell>
        <mxCell id="GoWAyyU1EWHssX0x1m_c-10" value="Simple" style="rounded=1;whiteSpace=wrap;html=1;fillColor=#e1d5e7;strokeColor=#9673a6;" vertex="1" parent="1">
          <mxGeometry x="535" y="310" width="120" height="60" as="geometry" />
        </mxCell>
        <mxCell id="GoWAyyU1EWHssX0x1m_c-3" value="Multi-Valued" style="rounded=1;whiteSpace=wrap;html=1;fillColor=#f8cecc;strokeColor=#b85450;" vertex="1" parent="1">
          <mxGeometry x="700" y="210" width="120" height="60" as="geometry" />
        </mxCell>
        <mxCell id="GoWAyyU1EWHssX0x1m_c-2" value="Singular" style="rounded=1;whiteSpace=wrap;html=1;fillColor=#f8cecc;strokeColor=#b85450;" vertex="1" parent="1">
          <mxGeometry x="157.5" y="210" width="120" height="60" as="geometry" />
        </mxCell>
        <mxCell id="GoWAyyU1EWHssX0x1m_c-27" value="" style="endArrow=none;dashed=1;html=1;rounded=0;entryX=0.5;entryY=1;entryDx=0;entryDy=0;exitX=0.5;exitY=0;exitDx=0;exitDy=0;" edge="1" parent="1" source="GoWAyyU1EWHssX0x1m_c-6" target="GoWAyyU1EWHssX0x1m_c-4">
          <mxGeometry width="50" height="50" relative="1" as="geometry">
            <mxPoint x="50" y="630" as="sourcePoint" />
            <mxPoint x="100" y="580" as="targetPoint" />
          </mxGeometry>
        </mxCell>
        <mxCell id="GoWAyyU1EWHssX0x1m_c-28" value="" style="endArrow=none;dashed=1;html=1;rounded=0;entryX=0.5;entryY=1;entryDx=0;entryDy=0;exitX=0.5;exitY=0;exitDx=0;exitDy=0;" edge="1" parent="1" source="GoWAyyU1EWHssX0x1m_c-7" target="GoWAyyU1EWHssX0x1m_c-5">
          <mxGeometry width="50" height="50" relative="1" as="geometry">
            <mxPoint x="270" y="590" as="sourcePoint" />
            <mxPoint x="320" y="540" as="targetPoint" />
          </mxGeometry>
        </mxCell>
        <mxCell id="GoWAyyU1EWHssX0x1m_c-29" value="" style="endArrow=none;dashed=1;html=1;rounded=0;entryX=0.5;entryY=1;entryDx=0;entryDy=0;exitX=0.5;exitY=0;exitDx=0;exitDy=0;" edge="1" parent="1" source="GoWAyyU1EWHssX0x1m_c-13" target="GoWAyyU1EWHssX0x1m_c-10">
          <mxGeometry width="50" height="50" relative="1" as="geometry">
            <mxPoint x="520" y="580" as="sourcePoint" />
            <mxPoint x="570" y="530" as="targetPoint" />
          </mxGeometry>
        </mxCell>
        <mxCell id="GoWAyyU1EWHssX0x1m_c-30" value="" style="endArrow=none;dashed=1;html=1;rounded=0;entryX=0.5;entryY=1;entryDx=0;entryDy=0;exitX=0.5;exitY=0;exitDx=0;exitDy=0;" edge="1" parent="1" source="GoWAyyU1EWHssX0x1m_c-8" target="GoWAyyU1EWHssX0x1m_c-9">
          <mxGeometry width="50" height="50" relative="1" as="geometry">
            <mxPoint x="410" y="420" as="sourcePoint" />
            <mxPoint x="460" y="370" as="targetPoint" />
          </mxGeometry>
        </mxCell>
      </root>
    </mxGraphModel>
  </diagram>
  <diagram id="_kxlIlW9WdeW5IJrH-dI" name="Page-3">
    <mxGraphModel dx="1420" dy="790" grid="1" gridSize="10" guides="1" tooltips="1" connect="1" arrows="1" fold="1" page="1" pageScale="1" pageWidth="1169" pageHeight="827" math="0" shadow="0">
      <root>
        <mxCell id="0" />
        <mxCell id="1" parent="0" />
        <mxCell id="5szC6JK76whH2E587TwM-1" value="User" style="rounded=1;whiteSpace=wrap;html=1;fillColor=#dae8fc;strokeColor=#6c8ebf;" vertex="1" parent="1">
          <mxGeometry x="250.74815" y="110" width="236.6137" height="60" as="geometry" />
        </mxCell>
        <mxCell id="5szC6JK76whH2E587TwM-2" value="Tenant" style="rounded=1;whiteSpace=wrap;html=1;fillColor=#dae8fc;strokeColor=#6c8ebf;" vertex="1" parent="1">
          <mxGeometry x="519" y="220" width="120" height="60" as="geometry" />
        </mxCell>
        <mxCell id="5szC6JK76whH2E587TwM-3" value="Role" style="rounded=1;whiteSpace=wrap;html=1;fillColor=#dae8fc;strokeColor=#6c8ebf;" vertex="1" parent="1">
          <mxGeometry x="99" y="220" width="120" height="60" as="geometry" />
        </mxCell>
        <mxCell id="4HPxgrTcIWlnAQme8Dkt-3" value="" style="endArrow=classic;html=1;rounded=0;entryX=1;entryY=0.5;entryDx=0;entryDy=0;exitX=0;exitY=0.5;exitDx=0;exitDy=0;" edge="1" parent="1" source="4HPxgrTcIWlnAQme8Dkt-1" target="5szC6JK76whH2E587TwM-3">
          <mxGeometry width="50" height="50" relative="1" as="geometry">
            <mxPoint x="560" y="430" as="sourcePoint" />
            <mxPoint x="610" y="380" as="targetPoint" />
          </mxGeometry>
        </mxCell>
        <mxCell id="4HPxgrTcIWlnAQme8Dkt-4" value="" style="endArrow=classic;html=1;rounded=0;entryX=0.25;entryY=1;entryDx=0;entryDy=0;exitX=0.5;exitY=0;exitDx=0;exitDy=0;" edge="1" parent="1" source="4HPxgrTcIWlnAQme8Dkt-1" target="5szC6JK76whH2E587TwM-1">
          <mxGeometry width="50" height="50" relative="1" as="geometry">
            <mxPoint x="270" y="360" as="sourcePoint" />
            <mxPoint x="320" y="310" as="targetPoint" />
          </mxGeometry>
        </mxCell>
        <mxCell id="4HPxgrTcIWlnAQme8Dkt-5" value="" style="endArrow=classic;html=1;rounded=0;entryX=0.75;entryY=1;entryDx=0;entryDy=0;exitX=0.5;exitY=0;exitDx=0;exitDy=0;" edge="1" parent="1" source="4HPxgrTcIWlnAQme8Dkt-2" target="5szC6JK76whH2E587TwM-1">
          <mxGeometry width="50" height="50" relative="1" as="geometry">
            <mxPoint x="330" y="450" as="sourcePoint" />
            <mxPoint x="380" y="400" as="targetPoint" />
          </mxGeometry>
        </mxCell>
        <mxCell id="4HPxgrTcIWlnAQme8Dkt-6" value="" style="endArrow=classic;html=1;rounded=0;exitX=1;exitY=0.5;exitDx=0;exitDy=0;" edge="1" parent="1" source="4HPxgrTcIWlnAQme8Dkt-2" target="5szC6JK76whH2E587TwM-2">
          <mxGeometry width="50" height="50" relative="1" as="geometry">
            <mxPoint x="400" y="480" as="sourcePoint" />
            <mxPoint x="450" y="430" as="targetPoint" />
          </mxGeometry>
        </mxCell>
        <mxCell id="4HPxgrTcIWlnAQme8Dkt-8" value="" style="group" vertex="1" connectable="0" parent="1">
          <mxGeometry x="250" y="220" width="238.11" height="60" as="geometry" />
        </mxCell>
        <mxCell id="4HPxgrTcIWlnAQme8Dkt-1" value="UserRole" style="rounded=1;whiteSpace=wrap;html=1;fillColor=#f8cecc;strokeColor=#b85450;" vertex="1" parent="4HPxgrTcIWlnAQme8Dkt-8">
          <mxGeometry width="118.11" height="60" as="geometry" />
        </mxCell>
        <mxCell id="4HPxgrTcIWlnAQme8Dkt-2" value="UserTenant" style="rounded=1;whiteSpace=wrap;html=1;fillColor=#f8cecc;strokeColor=#b85450;" vertex="1" parent="4HPxgrTcIWlnAQme8Dkt-8">
          <mxGeometry x="120" width="118.11" height="60" as="geometry" />
        </mxCell>
      </root>
    </mxGraphModel>
  </diagram>
</mxfile>
